<svg width="28" height="28" viewBox="0 0 28 28" fill="none" xmlns="http://www.w3.org/2000/svg">
<path fill-rule="evenodd" clip-rule="evenodd" d="M24.3838 17.4998L24.3838 21.5019C24.3838 21.7986 24.3838 22.081 24.3644 22.319C24.3432 22.5784 24.2937 22.8761 24.1422 23.1735C23.9297 23.5906 23.5906 23.9297 23.1735 24.1423C22.876 24.2938 22.5784 24.3433 22.3189 24.3645C22.0809 24.3839 21.7986 24.3839 21.5019 24.3839H6.49913C6.20244 24.3839 5.92002 24.3839 5.68208 24.3645C5.42261 24.3433 5.12498 24.2938 4.82751 24.1423C4.41042 23.9297 4.07131 23.5906 3.85879 23.1735C3.70722 22.8761 3.65777 22.5784 3.63657 22.319C3.61713 22.081 3.61716 21.7986 3.61719 21.5019V17.4998H5.71719V22.1668C5.71719 22.2313 5.76942 22.2835 5.83385 22.2835H22.1671C22.2316 22.2835 22.2838 22.2313 22.2838 22.1668V17.4998H24.3838Z" fill="#818989"/>
<path d="M12.9504 4.66719V15.6548L9.76166 12.6537C9.33938 12.2563 8.67487 12.2764 8.27742 12.6987C7.87998 13.121 7.90012 13.7855 8.3224 14.1829L13.2807 18.8496C13.685 19.2301 14.3157 19.2301 14.72 18.8496L19.6783 14.1829C20.1006 13.7855 20.1207 13.121 19.7233 12.6987C19.3258 12.2764 18.6613 12.2563 18.239 12.6537L15.0503 15.6548V4.66719C15.0503 4.08729 14.5802 3.61719 14.0003 3.61719C13.4205 3.61719 12.9504 4.08729 12.9504 4.66719Z" fill="#818989"/>
</svg>
