<svg width="29" height="28" viewBox="0 0 29 28" fill="none" xmlns="http://www.w3.org/2000/svg">
<path fill-rule="evenodd" clip-rule="evenodd" d="M5.54969 5.04969C6.14198 4.4574 7.10228 4.4574 7.69457 5.04969L14.4971 11.8522L21.2996 5.04969C21.8919 4.4574 22.8522 4.4574 23.4445 5.04969C24.0368 5.64198 24.0368 6.60228 23.4445 7.19457L16.642 13.9971L23.4445 20.7996C24.0368 21.3919 24.0368 22.3522 23.4445 22.9445C22.8522 23.5368 21.8919 23.5368 21.2996 22.9445L14.4971 16.142L7.69457 22.9445C7.10228 23.5368 6.14198 23.5368 5.54969 22.9445C4.9574 22.3522 4.9574 21.3919 5.54969 20.7996L12.3522 13.9971L5.54969 7.19457C4.9574 6.60228 4.9574 5.64198 5.54969 5.04969Z" fill="#A2ABAB"/>
</svg>
