<svg width="56" height="56" viewBox="0 0 56 56" fill="none" xmlns="http://www.w3.org/2000/svg">
<rect width="56" height="56" rx="28" fill="#353838"/>
<path d="M33.9183 14H22.0817C17.6181 14 14 17.6189 14 22.0817V33.9183C14 38.3819 17.6181 42 22.0817 42H33.9183C38.3819 42 42 38.3811 42 33.9183V22.0817C42 17.6181 38.3819 14 33.9183 14ZM39.4221 34.1272C39.4221 37.0898 37.0202 39.4917 34.0575 39.4917H21.944C18.9813 39.4917 16.5794 37.0898 16.5794 34.1272V22.0136C16.5794 19.0509 18.9813 16.649 21.944 16.649H34.0575C37.0202 16.649 39.4221 19.0509 39.4221 22.0136V34.1272Z" fill="#A2ABAB"/>
<path d="M27.9995 20.8047C23.9872 20.8047 20.7344 24.0575 20.7344 28.0698C20.7344 32.0821 23.9872 35.335 27.9995 35.335C32.0118 35.335 35.2647 32.0821 35.2647 28.0698C35.2647 24.0575 32.0118 20.8047 27.9995 20.8047ZM27.9995 32.7798C25.3982 32.7798 23.2896 30.6712 23.2896 28.0698C23.2896 25.4685 25.3982 23.3599 27.9995 23.3599C30.6009 23.3599 32.7095 25.4685 32.7095 28.0698C32.7095 30.6712 30.6009 32.7798 27.9995 32.7798Z" fill="#A2ABAB"/>
<path d="M35.5089 18.8398C34.5743 18.8398 33.8164 19.5977 33.8164 20.5324C33.8164 21.467 34.5743 22.2249 35.5089 22.2249C36.4436 22.2249 37.2014 21.467 37.2014 20.5324C37.2014 19.5977 36.4436 18.8398 35.5089 18.8398Z" fill="#A2ABAB"/>
</svg>
