<svg width="427" height="132" viewBox="0 0 427 132" fill="none" xmlns="http://www.w3.org/2000/svg">
<path d="M141.068 131.468H84.3483C38.0383 131.468 0.488281 93.9284 0.488281 47.6084V6.67844C0.488281 4.18844 2.5083 2.15845 5.0083 2.15845H42.9783C45.4683 2.15845 47.4983 4.17844 47.4983 6.67844V47.6084C47.4983 67.9684 63.9983 84.4684 84.3583 84.4684H94.0783C96.5683 84.4684 98.5983 82.4485 98.5983 79.9485V6.66846C98.5983 4.17846 100.618 2.14844 103.118 2.14844H141.088C143.578 2.14844 145.608 4.16846 145.608 6.66846V126.948C145.608 129.438 143.588 131.468 141.088 131.468H141.068Z" fill="black"/>
<path d="M102.892 2.15625H159.612C205.922 2.15625 243.472 39.6962 243.472 86.0162V126.946C243.472 129.436 241.452 131.466 238.952 131.466H200.982C198.492 131.466 196.462 129.446 196.462 126.946V86.0162C196.462 65.6562 179.962 49.1562 159.602 49.1562H149.882C147.392 49.1562 145.362 51.1762 145.362 53.6762V126.956C145.362 129.446 143.342 131.476 140.842 131.476H102.872C100.382 131.476 98.3516 129.456 98.3516 126.956V6.67624C98.3516 4.18624 100.372 2.15625 102.872 2.15625H102.892Z" fill="black"/>
<path d="M240.769 1.28625L258.739 0.90625C305.049 0.90625 341.569 39.6963 341.569 86.0063V126.936C341.569 129.426 339.549 131.456 337.049 131.456H299.079C296.589 131.456 294.559 129.436 294.559 126.936V86.0063C294.559 65.6463 278.059 49.1462 257.699 49.1462H247.979C245.489 49.1462 243.459 51.1663 243.459 53.6663V126.946C243.459 129.436 241.439 131.466 238.939 131.466H200.969C198.479 131.466 196.449 129.446 196.449 126.946V40.2863C196.449 39.1063 198.389 32.9262 201.649 26.7362C209.309 12.1662 224.319 2.35623 240.739 1.29623L240.769 1.28625Z" fill="black"/>
<path d="M421.859 131.507H339.949C311.509 131.507 297.059 108.457 297.059 80.0172V74.8372C297.059 34.0472 332.649 0.867188 376.399 0.867188H421.849C424.339 0.867188 426.369 2.88721 426.369 5.38721V43.3572C426.369 45.8472 424.349 47.8772 421.849 47.8772H376.399C358.569 47.8772 344.059 59.9772 344.059 74.8472V85.4072C344.059 87.8972 346.079 89.9272 348.579 89.9272H421.859C424.349 89.9272 426.379 91.9472 426.379 94.4472V127.007C426.379 129.497 424.359 131.527 421.859 131.527V131.507Z" fill="black"/>
</svg>
