<svg width="500" height="174" viewBox="0 0 500 174" fill="none" xmlns="http://www.w3.org/2000/svg">
<g clip-path="url(#clip0_1085_2560)">
<path d="M98.9116 67.1113V102.587C98.9116 106.541 95.7101 109.75 91.7646 109.75H56.9572C55.0597 109.75 53.2458 110.504 51.9 111.845L2.10477 161.765C-2.40079 166.281 0.79239 173.998 7.16203 173.998H156.347C160.293 173.998 163.494 170.789 163.494 166.834V17.3001C163.494 10.9155 155.795 7.72326 151.29 12.231L100.592 63.0477C99.5134 64.1285 98.9116 65.5864 98.9116 67.1113Z" fill="#90E6C9"/>
<path d="M435.419 67.1113V102.587C435.419 106.541 432.218 109.75 428.272 109.75H393.465C391.568 109.75 389.754 110.505 388.408 111.845L338.613 161.757C334.107 166.273 337.3 173.99 343.67 173.99H492.855C496.8 173.99 500.002 170.781 500.002 166.826V17.3001C500.002 10.9155 492.303 7.72326 487.798 12.231L437.1 63.0477C436.021 64.1285 435.419 65.5864 435.419 67.1113Z" fill="#90E6C9"/>
<path d="M268.203 0C220.263 0 181.41 38.9525 181.41 86.9958C181.41 135.048 220.272 173.992 268.203 173.992C316.142 173.992 354.995 135.039 354.995 86.9958C354.995 38.9441 316.134 0 268.203 0ZM268.203 105.496C258.013 105.496 249.754 97.2178 249.754 87.0042C249.754 76.7906 258.013 68.5124 268.203 68.5124C278.393 68.5124 286.651 76.7906 286.651 87.0042C286.651 97.2178 278.393 105.496 268.203 105.496Z" fill="#90E6C9"/>
</g>
<defs>
<clipPath id="clip0_1085_2560">
<rect width="500" height="174" fill="white"/>
</clipPath>
</defs>
</svg>
