<svg width="36" height="36" viewBox="0 0 36 36" fill="none" xmlns="http://www.w3.org/2000/svg">
<rect width="36" height="36" rx="18" fill="#FFEAEB"/>
<path d="M19.1162 20.4795H16.875L16.6377 11.5586H19.3623L19.1162 20.4795ZM18 24.4434C17.7363 24.4434 17.4902 24.376 17.2617 24.2412C17.0332 24.1006 16.8516 23.9189 16.7168 23.6963C16.5879 23.4678 16.5234 23.2217 16.5234 22.958C16.5234 22.7002 16.5879 22.46 16.7168 22.2373C16.8516 22.0088 17.0332 21.8301 17.2617 21.7012C17.4902 21.5723 17.7363 21.5078 18 21.5078C18.2578 21.5078 18.498 21.5723 18.7207 21.7012C18.9492 21.8301 19.1309 22.0088 19.2656 22.2373C19.4062 22.46 19.4766 22.7002 19.4766 22.958C19.4766 23.2217 19.4062 23.4678 19.2656 23.6963C19.1309 23.9189 18.9492 24.1006 18.7207 24.2412C18.498 24.376 18.2578 24.4434 18 24.4434Z" fill="#F49799"/>
</svg>
